<?xml version="1.0" standalone="no"?>
<!DOCTYPE svg PUBLIC "-//W3C//DTD SVG 20010904//EN"
 "http://www.w3.org/TR/2001/REC-SVG-20010904/DTD/svg10.dtd">
<svg version="1.0" xmlns="http://www.w3.org/2000/svg"
 width="1186.000000pt" height="1186.000000pt" viewBox="0 0 1186.000000 1186.000000"
 preserveAspectRatio="xMidYMid meet">
<metadata>
Created by potrace 1.16, written by Peter Selinger 2001-2019
</metadata>
<g transform="translate(0.000000,1186.000000) scale(0.100000,-0.100000)"
fill="#000000" stroke="none">
<path d="M5450 11845 c-1028 -90 -1957 -414 -2805 -978 -573 -382 -1102 -890
-1509 -1451 -659 -907 -1042 -1968 -1117 -3091 -15 -223 -6 -780 16 -980 22
-208 50 -394 85 -570 308 -1553 1234 -2923 2565 -3798 857 -562 1819 -885
2852 -958 347 -24 893 -4 1243 47 1663 238 3154 1180 4088 2582 544 815 859
1696 968 2702 21 196 30 778 15 980 -29 393 -76 690 -166 1050 -554 2228
-2385 3956 -4640 4379 -178 34 -313 53 -520 77 -195 22 -862 28 -1075 9z m800
-155 c868 -53 1662 -275 2400 -670 621 -332 1122 -733 1645 -1314 34 -38 193
-236 257 -321 295 -393 558 -863 742 -1327 534 -1349 539 -2864 13 -4214 -753
-1932 -2496 -3318 -4542 -3613 -298 -43 -477 -55 -825 -55 -404 0 -611 17
-985 79 -1150 194 -2230 750 -3071 1581 -936 925 -1525 2134 -1674 3434 -150
1311 144 2613 843 3728 614 980 1524 1762 2592 2227 804 351 1741 518 2605
465z"/>
<path d="M5850 11369 c-181 -36 -300 -199 -300 -415 0 -152 39 -253 127 -334
78 -71 143 -94 273 -94 120 -1 174 14 253 71 189 137 208 500 37 671 -94 93
-238 131 -390 101z m183 -183 c48 -20 93 -76 107 -136 18 -74 9 -194 -18 -247
-56 -109 -200 -138 -289 -60 -55 49 -76 106 -76 209 0 75 3 94 29 144 23 46
38 63 73 81 51 26 124 30 174 9z"/>
<path d="M5280 11328 c-47 -5 -87 -11 -89 -14 -4 -3 79 -816 84 -822 3 -4 188
18 193 22 4 5 -77 794 -83 814 -2 6 -8 11 -12 11 -4 -1 -46 -6 -93 -11z"/>
<path d="M6580 11320 c0 -6 -31 -189 -70 -407 -38 -218 -69 -397 -67 -398 4
-4 181 -34 183 -32 1 1 18 99 39 217 36 205 41 229 48 219 2 -2 46 -110 97
-239 51 -129 96 -238 100 -243 7 -8 180 -40 186 -35 3 4 144 792 144 807 0 11
-173 43 -181 33 -3 -4 -23 -107 -45 -229 -21 -123 -41 -219 -45 -215 -3 4 -50
118 -103 255 -81 205 -101 248 -119 252 -41 9 -141 25 -154 25 -7 0 -13 -5
-13 -10z"/>
<path d="M4698 11232 c-306 -66 -308 -66 -308 -92 0 -14 4 -41 9 -60 5 -19 12
-47 15 -61 l6 -27 111 24 c62 13 114 23 116 21 2 -2 33 -145 69 -318 37 -173
68 -315 69 -317 4 -4 185 34 191 40 2 3 -25 141 -61 308 -36 167 -65 311 -65
320 0 12 11 19 38 23 20 4 70 14 110 23 l74 17 -7 36 c-20 112 -27 131 -43
130 -9 -1 -155 -31 -324 -67z"/>
<path d="M7658 11008 c-224 -258 -517 -611 -513 -618 3 -5 42 -21 88 -36 45
-15 87 -29 93 -31 5 -2 37 30 69 72 33 41 64 73 70 71 5 -3 67 -24 138 -47
l127 -43 0 -96 0 -96 106 -37 107 -37 -6 88 c-4 48 -14 249 -24 448 l-17 360
-75 26 c-42 15 -83 29 -92 33 -12 4 -32 -12 -71 -57z m62 -337 l0 -110 -62 21
c-35 11 -67 24 -72 29 -9 8 111 167 127 168 4 1 7 -48 7 -108z"/>
<path d="M3968 10997 l-87 -31 -5 -71 c-3 -38 -8 -240 -12 -447 l-6 -378 68
26 c38 15 84 31 102 37 l32 10 0 97 0 97 129 47 c131 47 151 52 151 39 1 -5
26 -36 58 -71 l57 -63 95 34 c52 19 95 39 95 45 0 5 -88 108 -195 228 -107
120 -237 265 -289 323 -52 59 -97 107 -100 108 -3 1 -45 -12 -93 -30z m166
-338 c38 -44 66 -83 63 -86 -3 -3 -35 -16 -71 -29 l-66 -24 0 110 c0 61 2 110
3 110 2 0 34 -36 71 -81z"/>
<path d="M8145 10448 c-99 -194 -181 -360 -183 -368 -2 -11 75 -54 255 -145
141 -71 260 -131 263 -133 6 -2 83 149 78 153 -2 1 -80 42 -175 91 l-171 90
144 284 c79 157 144 288 144 292 0 8 -153 88 -167 88 -5 0 -89 -159 -188 -352z"/>
<path d="M3325 10708 c-38 -22 -72 -42 -74 -44 -2 -2 49 -92 114 -199 64 -108
115 -198 113 -200 -2 -2 -111 52 -242 121 l-239 124 -79 -46 c-44 -26 -77 -52
-75 -58 10 -25 413 -691 421 -695 10 -5 156 80 156 91 0 4 -39 72 -86 150
-138 228 -145 240 -134 236 5 -1 114 -56 242 -122 l233 -119 78 48 c59 36 77
51 72 64 -15 39 -411 691 -420 691 -5 0 -41 -19 -80 -42z"/>
<path d="M5605 10324 c-105 -9 -384 -46 -485 -65 -697 -133 -1373 -443 -1924
-883 -456 -364 -819 -793 -1109 -1306 -293 -521 -465 -1073 -539 -1730 -19
-173 -16 -677 5 -868 82 -728 310 -1366 705 -1972 304 -466 739 -905 1217
-1229 589 -399 1231 -636 1975 -728 209 -25 772 -25 985 0 919 112 1745 480
2420 1077 139 123 364 354 478 490 337 404 621 916 790 1422 363 1091 284
2300 -219 3323 -617 1257 -1787 2150 -3149 2404 -278 52 -404 63 -760 66 -187
1 -362 1 -390 -1z m615 -164 c452 -31 889 -131 1315 -301 165 -66 492 -233
653 -334 848 -533 1482 -1345 1790 -2295 81 -249 138 -509 179 -815 25 -192
25 -783 0 -980 -65 -497 -180 -897 -388 -1340 -99 -212 -276 -505 -423 -700
-598 -794 -1427 -1348 -2371 -1584 -357 -90 -649 -125 -1035 -125 -380 0 -677
35 -1020 121 -1621 401 -2853 1713 -3155 3358 -43 237 -56 369 -62 661 -13
620 73 1109 293 1666 318 807 897 1513 1629 1990 765 499 1690 740 2595 678z"/>
<path fill="red" d="M5847 9867 c178 -145 259 -278 257 -427 -1 -202 -169 -341 -412 -342
-84 -1 -98 2 -155 31 -69 34 -155 112 -266 241 -123 142 -253 269 -299 291
-40 20 -55 21 -195 16 -605 -22 -1271 -410 -1953 -1137 -226 -242 -456 -562
-479 -667 -3 -18 -29 -67 -57 -110 -160 -242 -308 -671 -383 -1108 -50 -293
-59 -411 -60 -750 0 -422 23 -602 125 -975 169 -619 410 -1162 658 -1490 65
-85 187 -207 251 -252 91 -64 188 -84 253 -52 54 26 70 56 77 148 7 98 23 127
89 160 105 52 210 59 642 42 252 -10 362 -1 490 40 121 38 237 130 286 227 67
131 147 448 234 931 24 131 21 160 -12 171 -13 4 -165 10 -338 14 -267 7 -321
10 -357 25 -78 33 -64 82 47 171 73 58 90 80 90 114 0 12 1 22 3 22 1 1 151 5
332 9 365 8 434 17 614 75 106 34 188 73 406 192 220 119 318 148 505 147 155
0 230 -17 275 -61 24 -25 27 -34 23 -79 -5 -64 -49 -128 -134 -197 -164 -135
-344 -205 -620 -243 -105 -15 -127 -21 -136 -38 -18 -33 -2 -166 46 -386 81
-375 85 -448 28 -562 -59 -121 -231 -341 -276 -353 -89 -26 -245 -79 -264 -91
-65 -42 30 -43 474 -9 866 67 1193 60 1689 -36 242 -47 360 -42 429 19 10 9
29 38 41 64 l22 47 49 -35 c27 -19 76 -54 110 -78 320 -229 575 -380 776 -460
82 -32 101 -32 164 -1 138 69 309 259 534 595 234 348 336 569 440 949 112
408 170 864 170 1341 0 680 -105 1170 -366 1705 -102 211 -184 349 -343 584
-140 207 -578 662 -781 813 -265 197 -557 358 -845 468 -60 23 -121 46 -134
51 -14 6 -108 34 -211 64 -289 84 -640 150 -1000 190 -154 16 -523 45 -588 45
l-44 0 79 -63z m2198 -627 c160 -34 250 -84 281 -155 17 -40 41 -212 49 -350
18 -293 -58 -639 -202 -923 -190 -374 -446 -663 -998 -1127 -90 -76 -182 -171
-202 -208 -33 -65 -8 -85 312 -257 220 -118 403 -221 565 -318 108 -64 426
-269 476 -306 23 -17 78 -56 123 -86 45 -30 112 -78 149 -105 37 -28 110 -74
162 -104 97 -54 150 -96 150 -116 0 -22 -37 -45 -151 -96 -476 -210 -638 -271
-776 -290 -143 -21 -268 16 -428 126 -97 66 -454 353 -741 595 -321 271 -483
393 -584 443 -59 29 -75 32 -175 35 -63 2 -166 -3 -240 -12 -134 -16 -291 -21
-357 -10 -29 5 -38 11 -38 26 0 37 129 142 422 346 629 437 1071 1029 1380
1851 43 114 43 133 2 174 -149 149 -999 68 -2539 -243 -580 -117 -668 -140
-756 -197 -40 -26 -79 -88 -79 -124 1 -68 79 -168 215 -274 68 -53 89 -76 110
-121 109 -230 44 -529 -134 -613 -112 -52 -292 -28 -496 68 -188 89 -297 209
-361 401 -24 70 -27 346 -5 455 24 122 89 332 152 489 72 181 328 701 339 689
4 -4 40 -154 80 -333 40 -179 74 -327 76 -329 4 -5 65 23 1004 464 488 229
511 239 665 278 435 112 1122 224 1630 266 72 6 148 13 170 15 22 2 177 2 345
1 268 -3 317 -5 405 -25z m-3364 -2576 c98 -57 113 -194 45 -404 -63 -197
-207 -472 -336 -645 -248 -331 -804 -784 -1230 -1001 l-115 -59 -245 0 c-245
0 -332 9 -433 41 -63 21 -80 47 -66 99 18 64 56 115 178 235 128 126 311 271
586 463 687 480 636 437 907 759 447 531 435 518 478 528 61 16 192 6 231 -16z"/>
<path fill="red" d="M6092 3000 c-100 -5 -287 -16 -415 -24 -127 -9 -367 -25 -532 -35
-165 -11 -464 -25 -665 -31 -382 -11 -513 -20 -669 -46 -214 -36 -287 -95
-213 -173 52 -57 421 -255 697 -374 485 -208 937 -326 1414 -368 170 -15 633
-6 788 15 500 67 922 200 1403 441 139 69 383 205 400 222 8 8 -57 59 -137
109 -194 122 -501 204 -928 249 -180 19 -866 28 -1143 15z"/>
<path d="M2511 10150 c-43 -24 -241 -177 -367 -285 l-24 -20 171 -210 c94
-115 212 -261 261 -323 80 -99 93 -111 107 -99 96 79 131 110 131 117 0 4 -43
60 -95 125 -52 64 -95 120 -95 124 0 13 35 40 66 51 26 9 55 3 190 -36 87 -26
169 -49 181 -51 17 -4 44 12 105 62 46 37 84 71 86 75 6 15 -323 120 -375 120
-18 0 -33 2 -33 5 0 3 9 23 20 45 41 81 19 192 -54 263 -52 50 -94 67 -163 67
-45 0 -70 -7 -112 -30z m137 -193 c40 -37 30 -77 -32 -134 -30 -28 -72 -64
-93 -80 l-38 -30 -42 51 c-23 29 -44 59 -47 67 -3 9 22 35 69 72 118 92 134
97 183 54z"/>
<path d="M9295 9673 l-287 -298 74 -68 73 -68 112 115 c61 64 115 116 120 116
5 0 61 -49 125 -109 l115 -110 56 57 c32 32 57 62 57 68 0 5 -52 58 -116 118
l-116 109 53 53 52 53 135 -130 c73 -72 137 -129 141 -127 5 2 33 30 62 62
l54 59 -205 198 c-113 109 -208 199 -212 199 -3 0 -135 -134 -293 -297z"/>
<path d="M1899 9588 c-20 -24 -109 -130 -199 -237 l-163 -195 25 -20 c14 -12
156 -130 314 -263 159 -133 292 -244 295 -245 4 -2 306 350 399 466 13 17 10
23 -45 72 -33 29 -63 54 -67 54 -6 0 -145 -161 -255 -294 l-32 -39 -65 53
c-36 30 -66 56 -66 59 0 3 56 73 125 154 69 82 125 150 125 151 0 1 -30 26
-66 56 -55 45 -67 51 -79 39 -7 -8 -64 -75 -127 -150 l-114 -136 -50 39 c-27
22 -51 42 -53 44 -2 2 23 34 56 71 86 98 213 252 213 257 0 7 -121 106 -129
106 -4 0 -23 -19 -42 -42z"/>
<path d="M10090 9387 c-14 -12 -157 -125 -318 -250 -160 -125 -292 -232 -292
-238 0 -5 41 -62 92 -127 51 -64 136 -174 191 -244 54 -71 101 -128 104 -128
7 0 121 89 127 99 3 5 -55 86 -129 180 l-134 170 47 38 c26 20 56 45 68 55 21
19 22 18 138 -132 65 -82 122 -152 127 -155 4 -3 38 17 74 46 l65 51 -28 36
c-16 21 -70 90 -121 155 -73 92 -91 121 -82 131 20 23 89 68 98 63 5 -3 62
-75 128 -161 66 -85 125 -155 132 -155 6 -1 37 20 70 46 32 26 60 48 62 49 2
2 -30 45 -70 97 -252 324 -310 397 -317 397 -4 0 -18 -11 -32 -23z"/>
<path d="M1422 8973 c-47 -69 -334 -534 -331 -537 2 -2 35 -23 73 -46 80 -49
67 -56 144 72 26 43 50 78 54 78 5 0 130 -77 280 -170 213 -133 275 -167 284
-158 6 7 30 44 53 82 35 56 41 71 29 81 -7 7 -128 83 -268 170 -140 87 -259
161 -263 165 -5 4 19 52 53 105 33 54 60 99 58 100 -13 10 -136 85 -141 85 -3
0 -14 -12 -25 -27z"/>
<path d="M10280 8493 c-201 -102 -367 -187 -368 -189 -2 -1 38 -84 89 -184 81
-158 100 -188 151 -235 44 -41 73 -59 115 -71 145 -42 361 32 486 165 65 69
89 123 95 206 4 60 0 81 -22 137 -23 56 -174 358 -179 358 -1 0 -166 -84 -367
-187z m343 -148 c63 -128 47 -193 -64 -265 -121 -78 -238 -102 -293 -59 -26
21 -106 153 -106 176 0 10 398 220 420 222 3 1 22 -33 43 -74z"/>
<path d="M979 8193 c-52 -117 -69 -98 173 -201 117 -50 206 -93 198 -96 -8 -2
-130 -21 -270 -41 -140 -21 -258 -40 -261 -44 -11 -11 -70 -163 -66 -167 3 -3
168 -75 368 -160 200 -86 369 -158 376 -161 7 -3 24 22 43 63 52 115 61 100
-112 173 -219 92 -264 113 -253 117 6 2 116 19 245 39 129 19 244 37 256 40
15 3 31 26 51 72 52 116 55 105 -44 146 -49 19 -220 92 -381 161 l-293 125
-30 -66z"/>
<path d="M10915 7805 c-71 -24 -245 -80 -385 -125 -140 -45 -258 -85 -262 -89
-5 -4 131 -442 187 -598 2 -8 27 -4 82 13 42 14 79 27 81 29 2 2 -26 97 -63
210 -36 114 -65 208 -63 210 12 9 158 52 162 47 2 -4 29 -86 61 -182 32 -96
59 -178 61 -182 4 -5 150 38 162 47 2 2 -24 85 -57 186 -33 101 -57 186 -53
190 8 7 101 39 113 39 5 0 36 -87 70 -192 34 -106 64 -196 68 -200 8 -9 161
40 161 52 0 4 -39 126 -86 271 -48 145 -89 274 -91 287 -3 12 -8 24 -12 26 -3
2 -64 -16 -136 -39z"/>
<path d="M672 7308 c-13 -50 -19 -95 -15 -98 10 -9 793 -204 797 -199 7 9 46
182 42 186 -4 4 -781 202 -796 203 -3 0 -16 -41 -28 -92z"/>
<path d="M10880 6936 c-329 -42 -405 -54 -405 -66 0 -8 4 -52 9 -97 10 -98
-10 -91 196 -64 97 13 137 15 143 7 4 -6 6 -31 4 -54 -6 -52 -36 -86 -190
-215 l-98 -82 7 -80 c3 -44 7 -133 8 -198 l1 -119 80 -32 80 -32 0 -141 c0
-78 -3 -144 -6 -147 -3 -3 -43 -19 -90 -35 l-84 -29 -5 -106 c-3 -61 -1 -106
4 -106 8 0 280 96 701 249 l130 47 3 99 3 100 -375 160 c-207 88 -376 163
-376 166 0 4 43 41 95 84 52 42 114 98 136 123 29 33 43 43 47 33 3 -8 23 -34
45 -58 132 -143 384 -56 404 139 5 55 -43 488 -55 499 -4 3 -189 -17 -412 -45z
m274 -218 c24 -179 21 -213 -25 -232 -39 -17 -76 -9 -95 18 -11 18 -44 188
-44 233 0 12 35 18 116 21 l42 2 6 -42z m-69 -966 c14 -7 -3 -16 -82 -41 -55
-17 -103 -31 -106 -31 -8 0 -9 134 -1 142 5 5 152 -49 189 -70z"/>
<path d="M826 6319 c-220 -32 -356 -224 -327 -460 17 -131 91 -238 204 -293
139 -68 347 -61 475 17 62 37 103 86 140 165 25 52 27 68 27 177 0 116 -1 123
-32 186 -58 117 -160 189 -298 209 -80 11 -107 11 -189 -1z m210 -214 c99 -29
155 -124 133 -224 -14 -64 -45 -100 -108 -129 -71 -33 -190 -37 -263 -9 -180
70 -163 323 25 367 54 13 161 11 213 -5z"/>
<path d="M902 5370 c-135 -36 -233 -105 -277 -194 -43 -88 -42 -135 4 -360 23
-109 41 -200 41 -202 0 -2 8 -4 17 -4 27 0 787 162 794 169 9 9 -65 345 -91
413 -26 70 -92 140 -157 170 -70 31 -231 35 -331 8z m272 -194 c23 -9 40 -27
54 -57 20 -42 50 -175 41 -182 -5 -5 -440 -97 -455 -97 -14 0 -38 109 -38 171
0 82 48 125 176 159 87 23 176 25 222 6z"/>
<path d="M11178 5298 c-3 -7 -13 -58 -23 -113 -10 -55 -19 -101 -20 -103 -1
-1 -141 25 -311 58 -170 33 -315 59 -323 58 -17 -3 -54 -180 -40 -189 5 -3
147 -32 317 -64 169 -32 309 -60 311 -62 4 -3 -28 -198 -36 -219 -5 -13 158
-47 168 -36 3 4 32 142 63 307 32 165 60 310 63 321 4 19 -2 23 -64 34 -37 6
-75 14 -84 16 -9 3 -19 -1 -21 -8z"/>
<path d="M10371 4698 c-15 -43 -44 -158 -40 -162 5 -5 773 -226 785 -226 8 0
66 180 60 187 -4 4 -772 223 -784 223 -7 0 -16 -10 -21 -22z"/>
<path d="M1295 4560 c-53 -14 -378 -134 -532 -197 -18 -7 -17 -16 19 -110 25
-65 35 -82 47 -78 236 92 486 186 519 194 33 9 48 9 69 -1 62 -30 100 -137 69
-197 -18 -35 -60 -58 -186 -106 -47 -18 -153 -58 -237 -90 l-151 -58 25 -66
c14 -36 30 -79 35 -94 6 -16 15 -26 22 -24 6 3 110 43 231 90 289 111 325 128
374 173 102 91 114 203 40 380 -41 98 -107 167 -181 189 -64 19 -76 18 -163
-5z"/>
<path d="M10359 4314 c-105 -32 -199 -130 -250 -261 -35 -89 -33 -208 5 -290
69 -150 265 -266 449 -265 71 0 88 4 153 36 85 42 136 96 182 189 62 124 67
241 16 345 -90 185 -362 306 -555 246z m194 -205 c135 -44 207 -121 207 -219
0 -93 -60 -171 -147 -190 -65 -15 -182 22 -266 84 -74 54 -98 158 -55 243 48
95 137 123 261 82z"/>
<path d="M1645 3745 c-69 -142 -125 -262 -125 -267 0 -12 -10 -11 -235 42
-115 26 -212 47 -214 45 -8 -9 125 -218 144 -226 11 -5 101 -25 200 -44 99
-20 187 -39 195 -41 8 -3 -38 -36 -109 -78 -67 -41 -127 -78 -133 -84 -15 -15
79 -175 99 -168 15 6 653 388 685 410 15 11 12 19 -28 86 -25 41 -49 79 -54
84 -5 5 -53 -19 -110 -53 -55 -33 -109 -61 -118 -61 -20 0 -122 27 -129 33 -2
3 39 84 91 180 53 96 96 178 96 181 0 6 -116 205 -126 215 -1 2 -59 -113 -129
-254z"/>
<path d="M9866 3578 c-25 -39 -46 -74 -46 -77 1 -3 84 -60 185 -125 102 -65
185 -121 185 -124 0 -3 -119 -2 -265 1 l-266 7 -49 -77 c-28 -43 -50 -81 -50
-84 0 -4 66 -49 148 -102 81 -52 234 -152 341 -221 107 -69 197 -126 200 -126
13 0 103 152 95 159 -5 5 -88 59 -184 121 -96 62 -179 117 -185 122 -7 7 84 8
265 4 l275 -7 49 76 c42 65 47 78 35 89 -24 22 -668 436 -678 436 -5 0 -30
-32 -55 -72z"/>
<path fill="red" d="M8978 2571 c-212 -58 -358 -251 -358 -475 0 -170 75 -314 209 -405
308 -208 716 -29 772 339 14 91 -4 201 -48 289 -34 68 -140 177 -209 213 -109
59 -241 72 -366 39z m205 -311 l13 -35 138 3 c92 2 136 0 132 -7 -4 -6 -54
-47 -111 -91 -58 -45 -105 -85 -105 -89 0 -4 18 -68 40 -141 22 -73 39 -135
37 -136 -1 -2 -50 35 -107 81 -58 46 -109 84 -115 84 -5 0 -57 -38 -115 -84
-58 -46 -106 -82 -108 -80 -2 1 15 62 37 135 23 72 41 135 41 139 0 5 -47 45
-105 90 -58 46 -107 87 -111 92 -3 5 50 7 134 5 l139 -4 44 146 43 147 34
-110 c18 -61 39 -126 45 -145z"/>
<path fill="red" d="M2580 2516 c-119 -33 -260 -147 -312 -251 -30 -60 -58 -166 -58 -221
1 -127 60 -265 155 -359 240 -238 634 -167 787 141 36 72 41 93 45 171 6 106
-7 181 -48 263 -61 120 -176 215 -308 254 -65 19 -196 20 -261 2z m166 -208
l39 -133 143 -5 142 -5 -114 -89 c-106 -83 -113 -91 -106 -115 5 -14 17 -55
28 -91 45 -145 52 -172 39 -163 -6 5 -55 44 -108 86 -54 42 -102 77 -107 77
-6 0 -56 -36 -112 -81 -56 -44 -104 -79 -106 -76 -4 4 54 214 72 262 3 6 -46
52 -108 101 l-113 89 137 3 c118 2 139 5 146 20 5 9 24 70 43 134 19 65 37
118 40 118 3 0 23 -60 45 -132z"/>
<path d="M7765 1664 c-169 -75 -308 -131 -352 -141 -39 -9 -77 -19 -83 -23
-10 -6 0 -61 42 -226 30 -121 53 -221 51 -224 -2 -2 -90 82 -196 187 l-192
191 -90 -22 c-49 -12 -89 -27 -89 -32 1 -5 45 -186 99 -402 l98 -394 36 7 c66
12 141 36 141 46 0 5 -23 102 -51 215 -27 114 -49 208 -47 209 2 2 89 -80 195
-181 l192 -185 83 21 c46 12 86 25 90 28 4 4 -33 167 -82 362 -49 195 -87 356
-86 358 2 1 70 -148 152 -333 82 -184 153 -335 159 -335 12 0 556 240 569 251
8 7 -50 159 -60 159 -2 0 -94 -40 -203 -89 l-199 -88 -36 80 c-20 44 -35 81
-34 81 2 1 83 37 181 80 97 44 177 81 177 82 0 4 -62 147 -67 153 -2 3 -100
-39 -290 -125 l-73 -34 -25 56 c-14 31 -25 60 -25 64 0 4 84 44 188 90 103 46
189 84 191 86 8 7 -62 154 -73 154 -6 0 -137 -57 -291 -126z"/>
<path d="M3781 1527 c-144 -339 -159 -410 -110 -508 66 -132 312 -234 450
-187 96 32 135 91 273 418 58 137 106 251 106 253 0 6 -165 77 -177 77 -4 0
-41 -80 -82 -178 -130 -312 -159 -369 -195 -386 -37 -17 -85 -10 -138 21 -79
46 -75 101 24 333 42 96 89 208 106 248 l32 73 -48 20 c-26 12 -68 29 -93 39
l-45 18 -103 -241z"/>
<path d="M4521 1483 c-5 -21 -53 -200 -106 -397 -53 -197 -92 -362 -88 -367
14 -13 175 -51 183 -42 4 4 20 58 36 120 l28 111 63 37 c35 21 65 36 67 34 2
-2 27 -89 56 -194 28 -104 55 -193 59 -197 7 -8 233 -69 237 -65 2 2 -37 126
-86 277 -49 151 -90 278 -90 282 0 4 79 54 175 112 171 103 175 105 174 78 0
-15 -17 -187 -38 -382 -21 -195 -37 -357 -35 -359 6 -7 186 -23 192 -17 3 4
13 77 21 162 l15 156 44 -5 c25 -3 53 -14 66 -26 12 -11 59 -90 104 -174 l82
-154 112 -12 c78 -8 114 -9 116 -2 2 6 33 11 70 11 37 0 74 4 82 10 8 5 26 46
40 92 l26 83 64 6 c36 4 101 7 146 8 l81 1 38 -85 38 -85 56 1 c31 1 79 4 107
7 l52 7 -28 60 c-172 371 -287 622 -313 679 l-31 68 -93 -4 c-51 -2 -97 -8
-102 -13 -5 -6 -66 -183 -136 -394 l-128 -384 -56 114 c-31 63 -69 130 -84
150 -31 41 -33 49 -12 49 24 0 87 35 111 62 74 81 83 217 21 309 -27 41 -85
75 -152 89 -90 19 -409 51 -455 46 -31 -4 -72 2 -135 19 -49 14 -95 25 -101
25 -6 0 -89 -50 -184 -110 -95 -61 -175 -108 -178 -106 -2 3 13 68 33 146 21
77 35 143 32 146 -5 6 -164 53 -179 54 -4 0 -12 -17 -17 -37z m1009 -333 c144
-17 160 -26 160 -89 0 -74 -37 -85 -217 -66 l-63 7 0 41 c0 63 11 117 24 117
6 0 50 -5 96 -10z m763 -200 c20 -49 37 -94 37 -100 0 -6 -30 -10 -74 -10
l-74 0 31 100 c17 55 33 100 37 100 4 0 23 -40 43 -90z"/>
<path d="M6676 1364 c-38 -7 -71 -16 -74 -18 -5 -5 134 -805 141 -812 7 -7
192 33 191 42 -1 5 -32 188 -70 406 l-69 398 -25 -1 c-14 0 -56 -7 -94 -15z"/>
</g>
</svg>
